<svg width="16" height="18" viewBox="0 0 16 18" fill="none" xmlns="http://www.w3.org/2000/svg">
<path d="M9.87818 9.00366L15.606 2.74339C15.8568 2.4686 15.9977 2.09591 15.9977 1.70731C15.9977 1.3187 15.8568 0.946011 15.606 0.671225C15.3552 0.396439 15.015 0.242065 14.6602 0.242065C14.3055 0.242065 13.9653 0.396439 13.7145 0.671225L8 6.94609L2.28552 0.671225C2.03469 0.396439 1.6945 0.242065 1.33977 0.242065C0.985044 0.242065 0.644846 0.396439 0.394017 0.671225C0.143188 0.946011 0.00227327 1.3187 0.00227327 1.70731C0.00227327 2.09591 0.143188 2.4686 0.394017 2.74339L6.12182 9.00366L0.394017 15.2639C0.269166 15.3996 0.17007 15.561 0.102444 15.7388C0.0348177 15.9166 0 16.1074 0 16.3C0 16.4926 0.0348177 16.6834 0.102444 16.8612C0.17007 17.039 0.269166 17.2004 0.394017 17.3361C0.517848 17.4729 0.665174 17.5814 0.827496 17.6555C0.989818 17.7296 1.16392 17.7677 1.33977 17.7677C1.51562 17.7677 1.68972 17.7296 1.85204 17.6555C2.01437 17.5814 2.16169 17.4729 2.28552 17.3361L8 11.0612L13.7145 17.3361C13.8383 17.4729 13.9856 17.5814 14.148 17.6555C14.3103 17.7296 14.4844 17.7677 14.6602 17.7677C14.8361 17.7677 15.0102 17.7296 15.1725 17.6555C15.3348 17.5814 15.4822 17.4729 15.606 17.3361C15.7308 17.2004 15.8299 17.039 15.8976 16.8612C15.9652 16.6834 16 16.4926 16 16.3C16 16.1074 15.9652 15.9166 15.8976 15.7388C15.8299 15.561 15.7308 15.3996 15.606 15.2639L9.87818 9.00366Z" fill="#8724BD"/>
</svg>
