<svg width="54" height="55" viewBox="0 0 54 55" fill="none" xmlns="http://www.w3.org/2000/svg">
<path d="M33.3389 27.3561L52.6702 8.06705C53.5167 7.22038 53.9923 6.07205 53.9923 4.87468C53.9923 3.67731 53.5167 2.52898 52.6702 1.68231C51.8236 0.835639 50.6755 0.359985 49.4783 0.359985C48.2811 0.359985 47.1329 0.835639 46.2864 1.68231L27 21.0164L7.71364 1.68231C6.86709 0.835639 5.71892 0.359985 4.52172 0.359985C3.32452 0.359985 2.17636 0.835639 1.32981 1.68231C0.483259 2.52898 0.0076723 3.67731 0.00767229 4.87468C0.00767228 6.07205 0.483259 7.22038 1.32981 8.06705L20.6611 27.3561L1.32981 46.6453C0.908437 47.0632 0.573987 47.5605 0.345748 48.1084C0.11751 48.6564 0 49.2441 0 49.8376C0 50.4312 0.11751 51.0189 0.345748 51.5668C0.573987 52.1147 0.908437 52.612 1.32981 53.03C1.74774 53.4514 2.24496 53.7859 2.7928 54.0142C3.34064 54.2425 3.92824 54.36 4.52172 54.36C5.1152 54.36 5.70281 54.2425 6.25065 54.0142C6.79848 53.7859 7.29571 53.4514 7.71364 53.03L27 33.6959L46.2864 53.03C46.7043 53.4514 47.2015 53.7859 47.7494 54.0142C48.2972 54.2425 48.8848 54.36 49.4783 54.36C50.0718 54.36 50.6594 54.2425 51.2072 54.0142C51.755 53.7859 52.2523 53.4514 52.6702 53.03C53.0916 52.612 53.426 52.1147 53.6543 51.5668C53.8825 51.0189 54 50.4312 54 49.8376C54 49.2441 53.8825 48.6564 53.6543 48.1084C53.426 47.5605 53.0916 47.0632 52.6702 46.6453L33.3389 27.3561Z" fill="#5B4CCC"/>
</svg>