<svg width="16" height="17" viewBox="0 0 16 17" fill="none" xmlns="http://www.w3.org/2000/svg">
<path d="M4.00017 4.69623H12.0001C12.2122 4.69623 12.4157 4.78052 12.5657 4.93054C12.7158 5.08057 12.8 5.28405 12.8 5.49622C12.8 5.70839 12.7158 5.91187 12.5657 6.0619C12.4157 6.21193 12.2122 6.29621 12.0001 6.29621H4.00017C3.788 6.29621 3.58452 6.21193 3.43449 6.0619C3.28446 5.91187 3.20018 5.70839 3.20018 5.49622C3.20018 5.28405 3.28446 5.08057 3.43449 4.93054C3.58452 4.78052 3.788 4.69623 4.00017 4.69623ZM4.00017 7.89619H12.0001C12.2122 7.89619 12.4157 7.98047 12.5657 8.1305C12.7158 8.28053 12.8 8.48401 12.8 8.69618C12.8 8.90835 12.7158 9.11183 12.5657 9.26186C12.4157 9.41188 12.2122 9.49617 12.0001 9.49617H4.00017C3.788 9.49617 3.58452 9.41188 3.43449 9.26186C3.28446 9.11183 3.20018 8.90835 3.20018 8.69618C3.20018 8.48401 3.28446 8.28053 3.43449 8.1305C3.58452 7.98047 3.788 7.89619 4.00017 7.89619ZM2.40019 0.696289H13.6C14.2365 0.696289 14.847 0.949142 15.2971 1.39922C15.7471 1.8493 16 2.45974 16 3.09626V11.0961C16 11.7327 15.7471 12.3431 15.2971 12.7932C14.847 13.2433 14.2365 13.4961 13.6 13.4961H4.32816L1.3682 16.4641C1.29345 16.5382 1.2048 16.5969 1.10733 16.6367C1.00986 16.6765 0.905496 16.6967 0.800212 16.6961C0.695271 16.6988 0.591159 16.6769 0.496217 16.6321C0.350123 16.5721 0.225063 16.4701 0.136798 16.3392C0.0485325 16.2082 0.00101089 16.054 0.00022316 15.8961V3.09626C0.00022316 2.45974 0.253076 1.8493 0.703156 1.39922C1.15324 0.949142 1.76368 0.696289 2.40019 0.696289ZM1.6002 13.9681L3.43218 12.1281C3.50693 12.054 3.59558 11.9953 3.69305 11.9555C3.79051 11.9157 3.89488 11.8955 4.00017 11.8961H13.6C13.8122 11.8961 14.0157 11.8118 14.1657 11.6618C14.3157 11.5118 14.4 11.3083 14.4 11.0961V3.09626C14.4 2.88409 14.3157 2.68061 14.1657 2.53058C14.0157 2.38055 13.8122 2.29627 13.6 2.29627H2.40019C2.18802 2.29627 1.98454 2.38055 1.83451 2.53058C1.68448 2.68061 1.6002 2.88409 1.6002 3.09626V13.9681Z" fill="#0BB4FE"/>
</svg>
