<svg width="17" height="17" viewBox="0 0 17 17"  xmlns="http://www.w3.org/2000/svg">
<path d="M14.45 2.1H12.75V1.3C12.75 1.08783 12.6604 0.884344 12.501 0.734315C12.3416 0.584285 12.1254 0.5 11.9 0.5C11.6746 0.5 11.4584 0.584285 11.299 0.734315C11.1396 0.884344 11.05 1.08783 11.05 1.3V2.1H5.95V1.3C5.95 1.08783 5.86045 0.884344 5.70104 0.734315C5.54163 0.584285 5.32543 0.5 5.1 0.5C4.87457 0.5 4.65837 0.584285 4.49896 0.734315C4.33955 0.884344 4.25 1.08783 4.25 1.3V2.1H2.55C1.8737 2.1 1.2251 2.35286 0.746878 2.80294C0.26866 3.25303 0 3.86348 0 4.5V14.1C0 14.7365 0.26866 15.347 0.746878 15.7971C1.2251 16.2471 1.8737 16.5 2.55 16.5H14.45C15.1263 16.5 15.7749 16.2471 16.2531 15.7971C16.7313 15.347 17 14.7365 17 14.1V4.5C17 3.86348 16.7313 3.25303 16.2531 2.80294C15.7749 2.35286 15.1263 2.1 14.45 2.1V2.1ZM15.3 14.1C15.3 14.3122 15.2104 14.5157 15.051 14.6657C14.8916 14.8157 14.6754 14.9 14.45 14.9H2.55C2.32457 14.9 2.10837 14.8157 1.94896 14.6657C1.78955 14.5157 1.7 14.3122 1.7 14.1V8.5H15.3V14.1ZM15.3 6.9H1.7V4.5C1.7 4.28783 1.78955 4.08434 1.94896 3.93431C2.10837 3.78429 2.32457 3.7 2.55 3.7H4.25V4.5C4.25 4.71217 4.33955 4.91566 4.49896 5.06569C4.65837 5.21571 4.87457 5.3 5.1 5.3C5.32543 5.3 5.54163 5.21571 5.70104 5.06569C5.86045 4.91566 5.95 4.71217 5.95 4.5V3.7H11.05V4.5C11.05 4.71217 11.1396 4.91566 11.299 5.06569C11.4584 5.21571 11.6746 5.3 11.9 5.3C12.1254 5.3 12.3416 5.21571 12.501 5.06569C12.6604 4.91566 12.75 4.71217 12.75 4.5V3.7H14.45C14.6754 3.7 14.8916 3.78429 15.051 3.93431C15.2104 4.08434 15.3 4.28783 15.3 4.5V6.9Z" fill="#0BB4FE"/>
</svg>
