<svg width="16" height="16" viewBox="0 0 16 16" fill="none" xmlns="http://www.w3.org/2000/svg">
<path d="M13.6 0H2.4C1.76348 0 1.15303 0.252856 0.702944 0.702944C0.252857 1.15303 1.44702e-07 1.76348 1.44702e-07 2.4V3.336C-0.000114566 3.66635 0.0679731 3.99317 0.2 4.296V4.344C0.313024 4.60078 0.473114 4.83413 0.672 5.032L5.6 9.928V15.2C5.59973 15.336 5.63411 15.4697 5.6999 15.5887C5.76569 15.7077 5.86071 15.8079 5.976 15.88C6.10331 15.9589 6.25022 16.0005 6.4 16C6.52523 15.9992 6.64854 15.9691 6.76 15.912L9.96 14.312C10.0919 14.2455 10.2029 14.1438 10.2805 14.0181C10.3582 13.8925 10.3996 13.7477 10.4 13.6V9.928L15.296 5.032C15.4949 4.83413 15.655 4.60078 15.768 4.344V4.296C15.9111 3.99554 15.9901 3.66862 16 3.336V2.4C16 1.76348 15.7471 1.15303 15.2971 0.702944C14.847 0.252856 14.2365 0 13.6 0ZM9.032 9.032C8.95786 9.10675 8.8992 9.1954 8.85938 9.29287C8.81957 9.39034 8.79939 9.49471 8.8 9.6V13.104L7.2 13.904V9.6C7.20061 9.49471 7.18043 9.39034 7.14062 9.29287C7.1008 9.1954 7.04215 9.10675 6.968 9.032L2.728 4.8H13.272L9.032 9.032ZM14.4 3.2H1.6V2.4C1.6 2.18783 1.68429 1.98434 1.83431 1.83431C1.98434 1.68429 2.18783 1.6 2.4 1.6H13.6C13.8122 1.6 14.0157 1.68429 14.1657 1.83431C14.3157 1.98434 14.4 2.18783 14.4 2.4V3.2Z" fill="#7A69EE"/>
</svg>
