<svg width="21" height="24" viewBox="0 0 21 24" fill="none" xmlns="http://www.w3.org/2000/svg">
<path d="M10.1988 4.8C10.6735 4.8 11.1375 4.65924 11.5322 4.39553C11.9268 4.13181 12.2344 3.75698 12.4161 3.31844C12.5977 2.8799 12.6453 2.39734 12.5527 1.93178C12.4601 1.46623 12.2315 1.03859 11.8958 0.702945C11.5602 0.367299 11.1326 0.138721 10.667 0.0461164C10.2014 -0.0464881 9.71889 0.00103987 9.28034 0.18269C8.8418 0.364341 8.46697 0.671954 8.20326 1.06663C7.93954 1.46131 7.79878 1.92533 7.79878 2.4C7.79878 3.03652 8.05164 3.64697 8.50173 4.09706C8.95181 4.54715 9.56226 4.8 10.1988 4.8ZM19.1988 21.6H17.9988V15.6C17.9988 15.2817 17.8724 14.9765 17.6473 14.7515C17.4223 14.5264 17.117 14.4 16.7988 14.4H10.7988V12H16.7988C17.117 12 17.4223 11.8736 17.6473 11.6485C17.8724 11.4235 17.9988 11.1183 17.9988 10.8C17.9988 10.4817 17.8724 10.1765 17.6473 9.95147C17.4223 9.72643 17.117 9.6 16.7988 9.6H10.7988V7.2C10.7988 6.88174 10.6724 6.57652 10.4473 6.35147C10.2223 6.12643 9.91704 6 9.59878 6C9.28052 6 8.9753 6.12643 8.75026 6.35147C8.52521 6.57652 8.39878 6.88174 8.39878 7.2V15.6C8.39878 15.9183 8.52521 16.2235 8.75026 16.4485C8.9753 16.6736 9.28052 16.8 9.59878 16.8H15.5988V22.8C15.5988 23.1183 15.7252 23.4235 15.9503 23.6485C16.1753 23.8736 16.4805 24 16.7988 24H19.1988C19.517 24 19.8223 23.8736 20.0473 23.6485C20.2724 23.4235 20.3988 23.1183 20.3988 22.8C20.3988 22.4817 20.2724 22.1765 20.0473 21.9515C19.8223 21.7264 19.517 21.6 19.1988 21.6ZM11.0388 19.68C10.4343 20.4859 9.5916 21.0813 8.62999 21.3817C7.66838 21.6821 6.63663 21.6723 5.68089 21.3537C4.72515 21.0351 3.89388 20.4239 3.30482 19.6066C2.71576 18.7893 2.39878 17.8074 2.39878 16.8C2.4002 15.8673 2.67333 14.9552 3.1848 14.1752C3.69628 13.3952 4.42392 12.7811 5.27878 12.408C5.57158 12.2807 5.80182 12.0423 5.91884 11.7452C6.03586 11.4482 6.03009 11.1168 5.90278 10.824C5.77548 10.5312 5.53708 10.301 5.24002 10.1839C4.94296 10.0669 4.61158 10.0727 4.31878 10.2C3.30898 10.6409 2.41385 11.3078 1.70234 12.1491C0.990826 12.9905 0.481908 13.9839 0.214782 15.0529C-0.0523437 16.1219 -0.0705505 17.2379 0.161564 18.3151C0.393678 19.3922 0.86992 20.4017 1.55361 21.2658C2.2373 22.13 3.1102 22.8256 4.10509 23.2993C5.09997 23.7729 6.19028 24.0119 7.29207 23.9978C8.39385 23.9837 9.4777 23.7169 10.4601 23.218C11.4426 22.7191 12.2974 22.0013 12.9588 21.12C13.1497 20.8654 13.2317 20.5454 13.1867 20.2303C13.1417 19.9152 12.9734 19.631 12.7188 19.44C12.4642 19.249 12.1441 19.1671 11.8291 19.2121C11.514 19.2571 11.2297 19.4254 11.0388 19.68V19.68Z" fill="white"/>
</svg>
