<svg width="20" height="20" viewBox="0 0 20 20"  xmlns="http://www.w3.org/2000/svg">
<path d="M10.592 11.0001L8.29195 13.2901C8.19823 13.3831 8.12383 13.4937 8.07306 13.6155C8.02229 13.7374 7.99615 13.8681 7.99615 14.0001C7.99615 14.1321 8.02229 14.2628 8.07306 14.3847C8.12383 14.5065 8.19823 14.6171 8.29195 14.7101C8.38492 14.8038 8.49552 14.8782 8.61738 14.929C8.73924 14.9798 8.86994 15.0059 9.00195 15.0059C9.13396 15.0059 9.26467 14.9798 9.38653 14.929C9.50839 14.8782 9.61899 14.8038 9.71195 14.7101L13.712 10.7101C13.803 10.615 13.8744 10.5029 13.922 10.3801C14.022 10.1366 14.022 9.86356 13.922 9.6201C13.8744 9.49735 13.803 9.3852 13.712 9.2901L9.71195 5.2901C9.61871 5.19686 9.50803 5.1229 9.3862 5.07244C9.26438 5.02198 9.13381 4.99601 9.00195 4.99601C8.87009 4.99601 8.73953 5.02198 8.6177 5.07244C8.49588 5.1229 8.38519 5.19686 8.29195 5.2901C8.19871 5.38334 8.12475 5.49403 8.07429 5.61585C8.02383 5.73767 7.99786 5.86824 7.99786 6.0001C7.99786 6.13196 8.02383 6.26253 8.07429 6.38435C8.12475 6.50617 8.19871 6.61686 8.29195 6.7101L10.592 9.0001H1.00195C0.736737 9.0001 0.482383 9.10546 0.294846 9.29299C0.10731 9.48053 0.00195313 9.73488 0.00195312 10.0001C0.00195313 10.2653 0.10731 10.5197 0.294846 10.7072C0.482383 10.8947 0.736737 11.0001 1.00195 11.0001H10.592ZM10.002 9.96937e-05C8.13304 -0.00824409 6.2992 0.507313 4.70842 1.48829C3.11764 2.46927 1.83361 3.87641 1.00195 5.5501C0.882606 5.78879 0.862968 6.06512 0.947359 6.3183C1.03175 6.57147 1.21326 6.78075 1.45195 6.9001C1.69065 7.01945 1.96698 7.03909 2.22015 6.95469C2.47333 6.8703 2.68261 6.68879 2.80195 6.4501C3.43414 5.17342 4.39579 4.08872 5.5875 3.30809C6.77922 2.52746 8.15777 2.07922 9.58071 2.00969C11.0036 1.94017 12.4193 2.25188 13.6815 2.91261C14.9436 3.57334 16.0064 4.55913 16.7601 5.7681C17.5137 6.97706 17.9308 8.36535 17.9684 9.78948C18.0059 11.2136 17.6624 12.6219 16.9735 13.8689C16.2845 15.1159 15.2751 16.1563 14.0495 16.8825C12.8239 17.6088 11.4266 17.9946 10.002 18.0001C8.51083 18.0066 7.04811 17.5925 5.78164 16.8053C4.51518 16.0182 3.49631 14.89 2.84195 13.5501C2.72261 13.3114 2.51333 13.1299 2.26015 13.0455C2.00698 12.9611 1.73065 12.9808 1.49195 13.1001C1.25326 13.2194 1.07175 13.4287 0.987359 13.6819C0.902968 13.9351 0.922606 14.2114 1.04195 14.4501C1.83478 16.0456 3.03947 17.4003 4.53142 18.3741C6.02337 19.348 7.7484 19.9055 9.52807 19.9891C11.3077 20.0727 13.0774 19.6793 14.6541 18.8496C16.2308 18.0199 17.5571 16.7841 18.496 15.2699C19.4349 13.7558 19.9522 12.0182 19.9944 10.2371C20.0367 8.45597 19.6023 6.69589 18.7362 5.13893C17.8701 3.58197 16.6038 2.28467 15.0682 1.38121C13.5326 0.477745 11.7836 0.000936146 10.002 9.96937e-05Z" fill="#5B4CCC"/>
</svg>
