<svg width="24" height="19" viewBox="0 0 24 19"  xmlns="http://www.w3.org/2000/svg">
<path d="M12.344 9.52566C12.9269 9.02112 13.3944 8.39709 13.7149 7.69593C14.0353 6.99476 14.2011 6.23287 14.2011 5.46196C14.2011 4.01336 13.6256 2.62409 12.6013 1.59977C11.577 0.575455 10.1877 1.95441e-07 8.73914 1.95441e-07C7.29054 1.95441e-07 5.90127 0.575455 4.87695 1.59977C3.85263 2.62409 3.27718 4.01336 3.27718 5.46196C3.27717 6.23287 3.443 6.99476 3.76343 7.69593C4.08385 8.39709 4.55137 9.02112 5.13424 9.52566C3.60505 10.2181 2.30764 11.3363 1.39715 12.7466C0.486656 14.1569 0.00160784 15.7996 0 17.4783C0 17.768 0.115091 18.0459 0.319954 18.2507C0.524818 18.4556 0.802672 18.5707 1.09239 18.5707C1.38211 18.5707 1.65997 18.4556 1.86483 18.2507C2.06969 18.0459 2.18478 17.768 2.18478 17.4783C2.18478 15.74 2.87533 14.0728 4.10451 12.8437C5.33369 11.6145 7.00082 10.9239 8.73914 10.9239C10.4775 10.9239 12.1446 11.6145 13.3738 12.8437C14.6029 14.0728 15.2935 15.74 15.2935 17.4783C15.2935 17.768 15.4086 18.0459 15.6134 18.2507C15.8183 18.4556 16.0962 18.5707 16.3859 18.5707C16.6756 18.5707 16.9535 18.4556 17.1583 18.2507C17.3632 18.0459 17.4783 17.768 17.4783 17.4783C17.4767 15.7996 16.9916 14.1569 16.0811 12.7466C15.1706 11.3363 13.8732 10.2181 12.344 9.52566ZM8.73914 8.73914C8.09097 8.73914 7.45737 8.54694 6.91844 8.18684C6.37951 7.82673 5.95946 7.31491 5.71142 6.71608C5.46338 6.11726 5.39848 5.45833 5.52493 4.82262C5.65138 4.18691 5.9635 3.60297 6.42183 3.14465C6.88015 2.68633 7.46408 2.37421 8.09979 2.24776C8.7355 2.1213 9.39443 2.1862 9.99326 2.43425C10.5921 2.68229 11.1039 3.10233 11.464 3.64126C11.8241 4.18019 12.0163 4.8138 12.0163 5.46196C12.0163 6.33112 11.671 7.16469 11.0565 7.77928C10.4419 8.39387 9.6083 8.73914 8.73914 8.73914ZM19.379 9.08871C20.0781 8.30145 20.5348 7.32892 20.6941 6.28818C20.8533 5.24744 20.7084 4.18285 20.2767 3.22256C19.8451 2.26226 19.145 1.4472 18.2609 0.875468C17.3768 0.30374 16.3463 -0.0002814 15.2935 1.95441e-07C15.0038 1.95441e-07 14.7259 0.115091 14.5211 0.319954C14.3162 0.524818 14.2011 0.802672 14.2011 1.09239C14.2011 1.38211 14.3162 1.65997 14.5211 1.86483C14.7259 2.06969 15.0038 2.18479 15.2935 2.18479C16.1627 2.18479 16.9962 2.53006 17.6108 3.14465C18.2254 3.75924 18.5707 4.5928 18.5707 5.46196C18.5691 6.03573 18.417 6.59904 18.1294 7.09555C17.8419 7.59206 17.429 8.00438 16.9321 8.29126C16.7701 8.38468 16.6349 8.51811 16.5392 8.67877C16.4436 8.83944 16.3908 9.02196 16.3859 9.20887C16.3813 9.39432 16.424 9.57787 16.5101 9.74224C16.5961 9.9066 16.7225 10.0464 16.8775 10.1483L17.3035 10.4323L17.4455 10.5088C18.7623 11.1334 19.8731 12.1212 20.6473 13.3559C21.4214 14.5907 21.8266 16.021 21.8151 17.4783C21.8151 17.768 21.9302 18.0459 22.135 18.2507C22.3399 18.4556 22.6177 18.5707 22.9075 18.5707C23.1972 18.5707 23.475 18.4556 23.6799 18.2507C23.8848 18.0459 23.9999 17.768 23.9999 17.4783C24.0088 15.8019 23.5889 14.1511 22.7802 12.6827C21.9714 11.2144 20.8006 9.97716 19.379 9.08871Z" fill="#5B4CCC"/>
</svg>
