<svg width="24" height="24" viewBox="0 0 24 24"  xmlns="http://www.w3.org/2000/svg">
<path d="M23.5924 9.89911L12.7917 0.2985C12.5727 0.106105 12.2911 0 11.9996 0C11.7081 0 11.4266 0.106105 11.2076 0.2985L0.406899 9.89911C0.22333 10.0615 0.0938805 10.2762 0.0359545 10.5143C-0.0219715 10.7525 -0.00559641 11.0026 0.0828782 11.2312C0.169906 11.4567 0.323019 11.6507 0.522165 11.7878C0.721311 11.9248 0.957204 11.9985 1.19895 11.9992H2.39902V22.7999C2.39902 23.1182 2.52546 23.4234 2.75052 23.6485C2.97558 23.8736 3.28082 24 3.5991 24H20.4002C20.7184 24 21.0237 23.8736 21.2487 23.6485C21.4738 23.4234 21.6002 23.1182 21.6002 22.7999V11.9992H22.8003C23.0421 11.9985 23.278 11.9248 23.4771 11.7878C23.6762 11.6507 23.8294 11.4567 23.9164 11.2312C24.0049 11.0026 24.0212 10.7525 23.9633 10.5143C23.9054 10.2762 23.7759 10.0615 23.5924 9.89911ZM13.1997 21.5998H10.7996V17.9996C10.7996 17.6813 10.926 17.3761 11.1511 17.151C11.3761 16.926 11.6814 16.7995 11.9996 16.7995C12.3179 16.7995 12.6232 16.926 12.8482 17.151C13.0733 17.3761 13.1997 17.6813 13.1997 17.9996V21.5998ZM19.2001 21.5998H15.5999V17.9996C15.5999 17.0448 15.2206 16.129 14.5454 15.4539C13.8702 14.7787 12.9545 14.3994 11.9996 14.3994C11.0448 14.3994 10.1291 14.7787 9.45389 15.4539C8.77871 16.129 8.3994 17.0448 8.3994 17.9996V21.5998H4.79918V11.9992H19.2001V21.5998ZM4.35515 9.59909L11.9996 2.80666L19.6441 9.59909H4.35515Z" />
</svg>
