<svg width="34" height="34" viewBox="0 0 34 34"  xmlns="http://www.w3.org/2000/svg">
<path d="M18.9876 15.005L19.0017 2.86862C19.0017 2.33653 18.7904 1.82623 18.4141 1.44999C18.0379 1.07375 17.5276 0.862376 16.9955 0.862376C16.4634 0.862376 15.9531 1.07375 15.5769 1.44999C15.2006 1.82623 14.9893 2.33653 14.9893 2.86862L15.0034 15.005L2.86701 14.9909C2.33492 14.9909 1.82463 15.2022 1.44838 15.5785C1.07214 15.9547 0.860769 16.465 0.860769 16.9971C0.860769 17.5292 1.07214 18.0395 1.44838 18.4157C1.82463 18.792 2.33492 19.0033 2.86701 19.0033L15.0034 18.9892L14.9893 31.1256C14.9882 31.3894 15.0393 31.6507 15.1398 31.8946C15.2402 32.1385 15.3879 32.3601 15.5745 32.5466C15.761 32.7331 15.9826 32.8809 16.2265 32.9813C16.4704 33.0818 16.7317 33.1329 16.9955 33.1318C17.2593 33.1329 17.5206 33.0818 17.7645 32.9813C18.0084 32.8809 18.23 32.7331 18.4165 32.5466C18.603 32.3601 18.7508 32.1385 18.8512 31.8946C18.9517 31.6507 19.0028 31.3893 19.0017 31.1256L18.9876 18.9892L31.124 19.0033C31.3877 19.0044 31.6491 18.9533 31.893 18.8528C32.1369 18.7524 32.3585 18.6047 32.545 18.4181C32.7315 18.2316 32.8793 18.01 32.9797 17.7661C33.0801 17.5222 33.1313 17.2609 33.1302 16.9971C33.1313 16.7333 33.0801 16.472 32.9797 16.2281C32.8793 15.9842 32.7315 15.7626 32.545 15.5761C32.3585 15.3895 32.1369 15.2418 31.893 15.1414C31.6491 15.0409 31.3877 14.9898 31.124 14.9909L18.9876 15.005Z" fill="white"/>
</svg>
