<svg width="14" height="12" viewBox="0 0 14 12"  xmlns="http://www.w3.org/2000/svg">
<path d="M10.4863 5.292C10.3125 5.292 10.1458 5.35521 10.0228 5.46774C9.89993 5.58026 9.83088 5.73287 9.83088 5.892V10.2C9.83088 10.3591 9.76183 10.5117 9.63892 10.6243C9.51601 10.7368 9.34931 10.8 9.17549 10.8H1.96618C1.79236 10.8 1.62565 10.7368 1.50274 10.6243C1.37983 10.5117 1.31078 10.3591 1.31078 10.2V3.6C1.31078 3.44087 1.37983 3.28826 1.50274 3.17574C1.62565 3.06321 1.79236 3 1.96618 3H6.67189C6.84571 3 7.01241 2.93679 7.13532 2.82426C7.25823 2.71174 7.32728 2.55913 7.32728 2.4C7.32728 2.24087 7.25823 2.08826 7.13532 1.97574C7.01241 1.86321 6.84571 1.8 6.67189 1.8H1.96618C1.44471 1.8 0.944609 1.98964 0.57588 2.32721C0.20715 2.66477 0 3.12261 0 3.6V10.2C0 10.6774 0.20715 11.1352 0.57588 11.4728C0.944609 11.8104 1.44471 12 1.96618 12H9.17549C9.69695 12 10.1971 11.8104 10.5658 11.4728C10.9345 11.1352 11.1417 10.6774 11.1417 10.2V5.892C11.1417 5.73287 11.0726 5.58026 10.9497 5.46774C10.8268 5.35521 10.6601 5.292 10.4863 5.292ZM13.0554 0.372C12.9889 0.22539 12.8616 0.108885 12.7015 0.048C12.6227 0.0172554 12.5381 0.000947992 12.4524 0H8.5201C8.34628 0 8.17957 0.0632141 8.05667 0.175736C7.93376 0.288258 7.86471 0.44087 7.86471 0.6C7.86471 0.75913 7.93376 0.911742 8.05667 1.02426C8.17957 1.13679 8.34628 1.2 8.5201 1.2H10.873L4.12242 7.374C4.06099 7.42978 4.01223 7.49614 3.97896 7.56925C3.94568 7.64237 3.92855 7.72079 3.92855 7.8C3.92855 7.87921 3.94568 7.95763 3.97896 8.03075C4.01223 8.10386 4.06099 8.17022 4.12242 8.226C4.18334 8.28224 4.25583 8.32687 4.3357 8.35734C4.41556 8.3878 4.50122 8.40348 4.58774 8.40348C4.67426 8.40348 4.75993 8.3878 4.83979 8.35734C4.91966 8.32687 4.99215 8.28224 5.05307 8.226L11.7971 2.046V4.2C11.7971 4.35913 11.8661 4.51174 11.989 4.62426C12.1119 4.73679 12.2786 4.8 12.4524 4.8C12.6263 4.8 12.793 4.73679 12.9159 4.62426C13.0388 4.51174 13.1078 4.35913 13.1078 4.2V0.6C13.1068 0.521594 13.089 0.444133 13.0554 0.372Z" fill="#5B4CCC"/>
</svg>
