<svg width="12" height="13" viewBox="0 0 12 13" fill="none" xmlns="http://www.w3.org/2000/svg">
<path d="M11.4551 9.39207L10.2054 8.11699C9.93657 7.86242 9.59749 7.69375 9.23172 7.63266C8.86595 7.57157 8.49019 7.62085 8.15275 7.77416L7.6094 7.23285C8.24968 6.38054 8.54208 5.31823 8.42776 4.25976C8.31345 3.2013 7.80089 2.22528 6.99327 1.52818C6.18565 0.831078 5.14294 0.464661 4.07505 0.502689C3.00716 0.540718 1.99337 0.980368 1.23777 1.73314C0.482174 2.4859 0.040871 3.49589 0.00269958 4.55979C-0.0354719 5.62368 0.332323 6.66248 1.03204 7.46707C1.73176 8.27167 2.71146 8.78231 3.7739 8.8962C4.83634 9.01009 5.90265 8.71878 6.75816 8.0809L7.29547 8.61619C7.12347 8.95279 7.06182 9.33467 7.11923 9.70802C7.17663 10.0814 7.35019 10.4274 7.61544 10.6972L8.89532 11.9723C9.23491 12.3102 9.69524 12.5 10.1752 12.5C10.6552 12.5 11.1155 12.3102 11.4551 11.9723C11.6276 11.8043 11.7646 11.6036 11.8582 11.382C11.9518 11.1605 12 10.9226 12 10.6822C12 10.4418 11.9518 10.2039 11.8582 9.98234C11.7646 9.7608 11.6276 9.56011 11.4551 9.39207ZM6.33556 6.84191C5.91311 7.26172 5.37523 7.54738 4.7899 7.6628C4.20456 7.77822 3.59801 7.71822 3.04689 7.49039C2.49576 7.26255 2.02477 6.8771 1.69342 6.38272C1.36207 5.88834 1.18523 5.30722 1.18523 4.71276C1.18523 4.1183 1.36207 3.53718 1.69342 3.0428C2.02477 2.54842 2.49576 2.16297 3.04689 1.93513C3.59801 1.70729 4.20456 1.6473 4.7899 1.76272C5.37523 1.87814 5.91311 2.1638 6.33556 2.58361C6.61667 2.86296 6.8397 3.19481 6.99188 3.56017C7.14405 3.92552 7.22238 4.3172 7.22238 4.71276C7.22238 5.10832 7.14405 5.49999 6.99188 5.86535C6.8397 6.2307 6.61667 6.56256 6.33556 6.84191ZM10.6038 11.0942C10.5477 11.1506 10.4809 11.1953 10.4074 11.2258C10.3338 11.2564 10.2549 11.2721 10.1752 11.2721C10.0955 11.2721 10.0166 11.2564 9.94302 11.2258C9.86945 11.1953 9.80268 11.1506 9.74656 11.0942L8.46668 9.8191C8.41009 9.76319 8.36518 9.69667 8.33453 9.62338C8.30388 9.55008 8.2881 9.47147 8.2881 9.39207C8.2881 9.31267 8.30388 9.23406 8.33453 9.16077C8.36518 9.08747 8.41009 9.02095 8.46668 8.96504C8.5228 8.90867 8.58957 8.86392 8.66314 8.83339C8.73671 8.80285 8.81562 8.78713 8.89532 8.78713C8.97501 8.78713 9.05392 8.80285 9.12749 8.83339C9.20106 8.86392 9.26783 8.90867 9.32396 8.96504L10.6038 10.2401C10.6604 10.296 10.7053 10.3626 10.736 10.4358C10.7666 10.5091 10.7824 10.5878 10.7824 10.6672C10.7824 10.7466 10.7666 10.8252 10.736 10.8985C10.7053 10.9718 10.6604 11.0383 10.6038 11.0942Z" fill="#7A69EE"/>
</svg>
