<svg width="105" height="105" viewBox="0 0 105 105" fill="none" xmlns="http://www.w3.org/2000/svg">
<circle cx="52.3203" cy="52.6802" r="50.8203" stroke="#E8E5E8" stroke-width="3"/>
<path d="M48.2213 47.3355L51.074 44.4703V56.4168C51.074 56.7472 51.2053 57.064 51.4389 57.2977C51.6725 57.5313 51.9894 57.6625 52.3198 57.6625C52.6502 57.6625 52.967 57.5313 53.2006 57.2977C53.4342 57.064 53.5655 56.7472 53.5655 56.4168V44.4703L56.4182 47.3355C56.534 47.4523 56.6718 47.5449 56.8236 47.6082C56.9754 47.6714 57.1382 47.704 57.3027 47.704C57.4671 47.704 57.6299 47.6714 57.7817 47.6082C57.9335 47.5449 58.0713 47.4523 58.1871 47.3355C58.3039 47.2197 58.3965 47.0819 58.4598 46.9301C58.523 46.7783 58.5556 46.6155 58.5556 46.451C58.5556 46.2866 58.523 46.1238 58.4598 45.972C58.3965 45.8202 58.3039 45.6824 58.1871 45.5666L53.2042 40.5837C53.0858 40.4703 52.9461 40.3814 52.7931 40.3221C52.4899 40.1975 52.1497 40.1975 51.8464 40.3221C51.6935 40.3814 51.5538 40.4703 51.4353 40.5837L46.4524 45.5666C46.3363 45.6827 46.2441 45.8206 46.1813 45.9724C46.1184 46.1241 46.0861 46.2868 46.0861 46.451C46.0861 46.6153 46.1184 46.7779 46.1813 46.9297C46.2441 47.0815 46.3363 47.2193 46.4524 47.3355C46.5686 47.4516 46.7065 47.5438 46.8582 47.6066C47.01 47.6695 47.1726 47.7019 47.3369 47.7019C47.5011 47.7019 47.6638 47.6695 47.8155 47.6066C47.9673 47.5438 48.1052 47.4516 48.2213 47.3355ZM63.5313 55.1711C63.2009 55.1711 62.884 55.3023 62.6504 55.5359C62.4168 55.7696 62.2855 56.0864 62.2855 56.4168V61.3997C62.2855 61.7301 62.1543 62.0469 61.9207 62.2806C61.6871 62.5142 61.3702 62.6454 61.0398 62.6454H43.5997C43.2693 62.6454 42.9525 62.5142 42.7189 62.2806C42.4852 62.0469 42.354 61.7301 42.354 61.3997V56.4168C42.354 56.0864 42.2227 55.7696 41.9891 55.5359C41.7555 55.3023 41.4387 55.1711 41.1083 55.1711C40.7779 55.1711 40.461 55.3023 40.2274 55.5359C39.9938 55.7696 39.8625 56.0864 39.8625 56.4168V61.3997C39.8625 62.3909 40.2563 63.3414 40.9571 64.0423C41.658 64.7431 42.6086 65.1369 43.5997 65.1369H61.0398C62.031 65.1369 62.9815 64.7431 63.6824 64.0423C64.3832 63.3414 64.777 62.3909 64.777 61.3997V56.4168C64.777 56.0864 64.6457 55.7696 64.4121 55.5359C64.1785 55.3023 63.8616 55.1711 63.5313 55.1711Z" fill="#0BB4FE"/>
</svg>
