<svg width="26" height="28" viewBox="0 0 26 28" fill="none" xmlns="http://www.w3.org/2000/svg">
<path d="M9.6 6.5C9.6 6.16863 9.33137 5.9 9 5.9C8.66863 5.9 8.4 6.16863 8.4 6.5L9.6 6.5ZM8.57574 21.9243C8.81005 22.1586 9.18995 22.1586 9.42426 21.9243L13.2426 18.1059C13.477 17.8716 13.477 17.4917 13.2426 17.2574C13.0083 17.023 12.6284 17.023 12.3941 17.2574L9 20.6515L5.60589 17.2574C5.37157 17.023 4.99167 17.023 4.75736 17.2574C4.52304 17.4917 4.52304 17.8716 4.75736 18.1059L8.57574 21.9243ZM8.4 6.5L8.4 21.5L9.6 21.5L9.6 6.5L8.4 6.5Z" fill="#8724BD"/>
<path d="M16.4 21.5C16.4 21.8314 16.6686 22.1 17 22.1C17.3314 22.1 17.6 21.8314 17.6 21.5L16.4 21.5ZM17.4243 6.07574C17.1899 5.84142 16.8101 5.84142 16.5757 6.07574L12.7574 9.89411C12.523 10.1284 12.523 10.5083 12.7574 10.7426C12.9917 10.977 13.3716 10.977 13.6059 10.7426L17 7.34853L20.3941 10.7426C20.6284 10.977 21.0083 10.977 21.2426 10.7426C21.477 10.5083 21.477 10.1284 21.2426 9.89411L17.4243 6.07574ZM17.6 21.5L17.6 6.5L16.4 6.5L16.4 21.5L17.6 21.5Z" fill="#8724BD"/>
</svg>
