<svg width="20" height="25" viewBox="0 0 20 25" fill="none" xmlns="http://www.w3.org/2000/svg">
<path d="M6.6 5C6.6 4.66863 6.33137 4.4 6 4.4C5.66863 4.4 5.4 4.66863 5.4 5L6.6 5ZM5.57574 20.4243C5.81005 20.6586 6.18995 20.6586 6.42426 20.4243L10.2426 16.6059C10.477 16.3716 10.477 15.9917 10.2426 15.7574C10.0083 15.523 9.62843 15.523 9.39411 15.7574L6 19.1515L2.60589 15.7574C2.37157 15.523 1.99167 15.523 1.75736 15.7574C1.52304 15.9917 1.52304 16.3716 1.75736 16.6059L5.57574 20.4243ZM5.4 5L5.4 20L6.6 20L6.6 5L5.4 5Z" fill="#7A69EE"/>
<path d="M13.4 20C13.4 20.3314 13.6686 20.6 14 20.6C14.3314 20.6 14.6 20.3314 14.6 20L13.4 20ZM14.4243 4.57574C14.1899 4.34142 13.8101 4.34142 13.5757 4.57574L9.75736 8.39411C9.52304 8.62843 9.52304 9.00833 9.75736 9.24264C9.99167 9.47695 10.3716 9.47695 10.6059 9.24264L14 5.84853L17.3941 9.24264C17.6284 9.47695 18.0083 9.47695 18.2426 9.24264C18.477 9.00833 18.477 8.62843 18.2426 8.39411L14.4243 4.57574ZM14.6 20L14.6 5L13.4 5L13.4 20L14.6 20Z" fill="#7A69EE"/>
</svg>
