<svg width="16" height="17" viewBox="0 0 16 17"  xmlns="http://www.w3.org/2000/svg">
<path d="M13.6 8.5H8V2.9C8 2.42 7.68 2.1 7.2 2.1C3.2 2.1 0 5.3 0 9.3C0 13.3 3.2 16.5 7.2 16.5C11.2 16.5 14.4 13.3 14.4 9.3C14.4 8.82 14.08 8.5 13.6 8.5ZM8 14.82C4.96 15.3 2.08 13.14 1.68 10.1C1.2 7.06 3.36 4.18 6.4 3.78V9.3C6.4 9.78 6.72 10.1 7.2 10.1H12.72C12.4 12.58 10.48 14.5 8 14.82ZM10.4 0.5C9.92 0.5 9.6 0.82 9.6 1.3V6.1C9.6 6.58 9.92 6.9 10.4 6.9H15.2C15.68 6.9 16 6.58 16 6.1C16 2.98 13.52 0.5 10.4 0.5ZM11.2 5.3V2.18C12.8 2.5 14 3.7 14.32 5.3H11.2Z" fill="#0BB4FE"/>
</svg>
