<svg width="24" height="24" viewBox="0 0 24 24"  xmlns="http://www.w3.org/2000/svg">
<path d="M22.7934 12.0035C22.4752 12.0035 22.1701 12.1299 21.9451 12.3548C21.7201 12.5798 21.5937 12.885 21.5937 13.2031V20.401C21.5937 20.7192 21.4673 21.0243 21.2424 21.2493C21.0174 21.4743 20.7123 21.6007 20.3941 21.6007H3.59896C3.28079 21.6007 2.97565 21.4743 2.75067 21.2493C2.5257 21.0243 2.3993 20.7192 2.3993 20.401V3.60591C2.3993 3.28774 2.5257 2.98261 2.75067 2.75763C2.97565 2.53265 3.28079 2.40626 3.59896 2.40626H10.7969C11.115 2.40626 11.4202 2.27987 11.6452 2.05489C11.8701 1.82991 11.9965 1.52478 11.9965 1.20661C11.9965 0.888441 11.8701 0.583304 11.6452 0.358326C11.4202 0.133348 11.115 0.00695599 10.7969 0.00695599H3.59896C2.64445 0.00695599 1.72905 0.386131 1.05411 1.06107C0.379175 1.736 0 2.65141 0 3.60591V20.401C0 21.3555 0.379175 22.271 1.05411 22.9459C1.72905 23.6208 2.64445 24 3.59896 24H20.3941C21.3486 24 22.264 23.6208 22.9389 22.9459C23.6139 22.271 23.993 21.3555 23.993 20.401V13.2031C23.993 12.885 23.8667 12.5798 23.6417 12.3548C23.4167 12.1299 23.1116 12.0035 22.7934 12.0035ZM4.79861 12.9152V18.0017C4.79861 18.3199 4.925 18.625 5.14998 18.85C5.37496 19.075 5.68009 19.2014 5.99826 19.2014H11.0848C11.2427 19.2023 11.3992 19.172 11.5453 19.1123C11.6915 19.0526 11.8244 18.9647 11.9365 18.8535L20.2381 10.5399L23.6451 7.20487C23.7576 7.09335 23.8468 6.96066 23.9077 6.81447C23.9686 6.66829 24 6.51148 24 6.35312C24 6.19475 23.9686 6.03795 23.9077 5.89176C23.8468 5.74557 23.7576 5.61289 23.6451 5.50136L18.5586 0.354855C18.4471 0.242414 18.3144 0.153166 18.1682 0.0922616C18.022 0.0313568 17.8652 0 17.7069 0C17.5485 0 17.3917 0.0313568 17.2455 0.0922616C17.0993 0.153166 16.9666 0.242414 16.8551 0.354855L13.4721 3.74987L5.14651 12.0635C5.03532 12.1756 4.94736 12.3085 4.88766 12.4547C4.82796 12.6008 4.7977 12.7573 4.79861 12.9152ZM17.7069 2.89812L21.1019 6.29313L19.3984 7.99664L16.0034 4.60162L17.7069 2.89812ZM7.19791 13.4071L14.3119 6.29313L17.7069 9.68815L10.5929 16.8021H7.19791V13.4071Z" fill="#5B4CCC"/>
</svg>
