<svg width="28" height="28" viewBox="0 0 28 28" fill="none" xmlns="http://www.w3.org/2000/svg">
<path d="M9.61335 8.28003L12.6667 5.21336V18C12.6667 18.3536 12.8072 18.6928 13.0572 18.9428C13.3073 19.1929 13.6464 19.3334 14 19.3334C14.3536 19.3334 14.6928 19.1929 14.9428 18.9428C15.1929 18.6928 15.3334 18.3536 15.3334 18V5.21336L18.3867 8.28003C18.5106 8.405 18.6581 8.50419 18.8206 8.57188C18.9831 8.63957 19.1573 8.67442 19.3334 8.67442C19.5094 8.67442 19.6836 8.63957 19.8461 8.57188C20.0086 8.50419 20.1561 8.405 20.28 8.28003C20.405 8.15607 20.5042 8.00861 20.5719 7.84613C20.6396 7.68365 20.6744 7.50937 20.6744 7.33336C20.6744 7.15734 20.6396 6.98307 20.5719 6.82059C20.5042 6.65811 20.405 6.51064 20.28 6.38669L14.9467 1.05336C14.8199 0.93197 14.6704 0.836817 14.5067 0.773358C14.1821 0.640001 13.818 0.640001 13.4934 0.773358C13.3297 0.836817 13.1802 0.93197 13.0534 1.05336L7.72002 6.38669C7.5957 6.51101 7.49709 6.6586 7.42981 6.82103C7.36253 6.98346 7.3279 7.15755 7.3279 7.33336C7.3279 7.50917 7.36253 7.68326 7.42981 7.84569C7.49709 8.00812 7.5957 8.15571 7.72002 8.28003C7.84434 8.40434 7.99193 8.50296 8.15435 8.57024C8.31678 8.63752 8.49087 8.67215 8.66669 8.67215C8.8425 8.67215 9.01659 8.63752 9.17902 8.57024C9.34145 8.50296 9.48904 8.40434 9.61335 8.28003ZM26 16.6667C25.6464 16.6667 25.3073 16.8072 25.0572 17.0572C24.8072 17.3073 24.6667 17.6464 24.6667 18V23.3334C24.6667 23.687 24.5262 24.0261 24.2762 24.2762C24.0261 24.5262 23.687 24.6667 23.3334 24.6667H4.66669C4.31307 24.6667 3.97393 24.5262 3.72388 24.2762C3.47383 24.0261 3.33335 23.687 3.33335 23.3334V18C3.33335 17.6464 3.19288 17.3073 2.94283 17.0572C2.69278 16.8072 2.35364 16.6667 2.00002 16.6667C1.6464 16.6667 1.30726 16.8072 1.05721 17.0572C0.807163 17.3073 0.666687 17.6464 0.666687 18V23.3334C0.666687 24.3942 1.08811 25.4116 1.83826 26.1618C2.58841 26.9119 3.60582 27.3334 4.66669 27.3334H23.3334C24.3942 27.3334 25.4116 26.9119 26.1618 26.1618C26.9119 25.4116 27.3334 24.3942 27.3334 23.3334V18C27.3334 17.6464 27.1929 17.3073 26.9428 17.0572C26.6928 16.8072 26.3536 16.6667 26 16.6667Z" fill="#0BB4FE"/>
</svg>
