<svg width="16" height="17" viewBox="0 0 16 17"  xmlns="http://www.w3.org/2000/svg">
<path d="M10.248 8.724C10.7544 8.18019 11.0397 7.46702 11.048 6.724C11.048 5.92199 10.7294 5.15282 10.1623 4.58571C9.59518 4.0186 8.82601 3.7 8.024 3.7C7.22199 3.7 6.45282 4.0186 5.88571 4.58571C5.3186 5.15282 5 5.92199 5 6.724C5.00835 7.46702 5.29362 8.18019 5.8 8.724C5.09492 9.0751 4.48818 9.59595 4.03433 10.2397C3.58049 10.8835 3.29378 11.6299 3.2 12.412C3.17666 12.6242 3.23856 12.8369 3.37209 13.0035C3.50561 13.17 3.69983 13.2767 3.912 13.3C4.12417 13.3233 4.33693 13.2614 4.50346 13.1279C4.66999 12.9944 4.77666 12.8002 4.8 12.588C4.89547 11.8129 5.27108 11.0995 5.85607 10.5821C6.44106 10.0648 7.19505 9.77918 7.976 9.77918C8.75695 9.77918 9.51094 10.0648 10.0959 10.5821C10.6809 11.0995 11.0565 11.8129 11.152 12.588C11.1742 12.7931 11.2749 12.9817 11.4329 13.1144C11.5909 13.2471 11.7941 13.3136 12 13.3H12.088C12.2977 13.2759 12.4894 13.1698 12.6212 13.005C12.7531 12.8402 12.8145 12.6299 12.792 12.42C12.7052 11.6421 12.4275 10.8976 11.9837 10.2528C11.5399 9.60805 10.9437 9.08288 10.248 8.724ZM8 8.148C7.71836 8.148 7.44304 8.06448 7.20887 7.90801C6.97469 7.75154 6.79217 7.52914 6.6844 7.26894C6.57662 7.00874 6.54842 6.72242 6.60336 6.44619C6.65831 6.16996 6.79393 5.91623 6.99308 5.71708C7.19223 5.51793 7.44596 5.38231 7.72219 5.32736C7.99842 5.27242 8.28474 5.30062 8.54494 5.4084C8.80514 5.51617 9.02754 5.69869 9.18401 5.93287C9.34048 6.16704 9.424 6.44236 9.424 6.724C9.424 7.10167 9.27397 7.46387 9.00692 7.73092C8.73987 7.99797 8.37767 8.148 8 8.148ZM13.6 0.5H2.4C1.76348 0.5 1.15303 0.752856 0.702944 1.20294C0.252856 1.65303 0 2.26348 0 2.9V14.1C0 14.7365 0.252856 15.347 0.702944 15.7971C1.15303 16.2471 1.76348 16.5 2.4 16.5H13.6C14.2365 16.5 14.847 16.2471 15.2971 15.7971C15.7471 15.347 16 14.7365 16 14.1V2.9C16 2.26348 15.7471 1.65303 15.2971 1.20294C14.847 0.752856 14.2365 0.5 13.6 0.5ZM14.4 14.1C14.4 14.3122 14.3157 14.5157 14.1657 14.6657C14.0157 14.8157 13.8122 14.9 13.6 14.9H2.4C2.18783 14.9 1.98434 14.8157 1.83431 14.6657C1.68429 14.5157 1.6 14.3122 1.6 14.1V2.9C1.6 2.68783 1.68429 2.48434 1.83431 2.33431C1.98434 2.18429 2.18783 2.1 2.4 2.1H13.6C13.8122 2.1 14.0157 2.18429 14.1657 2.33431C14.3157 2.48434 14.4 2.68783 14.4 2.9V14.1Z" fill="#0BB4FE"/>
</svg>
