<svg width="18" height="18" viewBox="0 0 18 18" fill="none" xmlns="http://www.w3.org/2000/svg">
<path d="M1.00003 8.55557C0.996967 9.72878 1.27107 10.8861 1.80002 11.9333C2.42719 13.1882 3.39135 14.2437 4.58451 14.9816C5.77766 15.7195 7.15269 16.1106 8.55557 16.1111C9.72878 16.1142 10.8861 15.8401 11.9333 15.3111L17 17L15.3111 11.9333C15.8401 10.8861 16.1142 9.72878 16.1111 8.55557C16.1106 7.15269 15.7195 5.77766 14.9816 4.58451C14.2437 3.39135 13.1882 2.42719 11.9333 1.80002C10.8861 1.27107 9.72878 0.996966 8.55557 1.00003H8.11112C6.25838 1.10224 4.50843 1.88426 3.19634 3.19634C1.88426 4.50843 1.10224 6.25837 1.00003 8.11112V8.55557Z" fill="#EAD5F6" stroke="#12051A" stroke-width="1.2" stroke-linecap="round" stroke-linejoin="round"/>
</svg>
