<svg width="26" height="26" viewBox="0 0 26 26" fill="none" xmlns="http://www.w3.org/2000/svg">
<path d="M18.6 5H7.4C6.76348 5 6.15303 5.25286 5.70294 5.70294C5.25286 6.15303 5 6.76348 5 7.4V8.336C4.99989 8.66635 5.06797 8.99317 5.2 9.296V9.344C5.31302 9.60078 5.47311 9.83413 5.672 10.032L10.6 14.928V20.2C10.5997 20.336 10.6341 20.4697 10.6999 20.5887C10.7657 20.7077 10.8607 20.8079 10.976 20.88C11.1033 20.9589 11.2502 21.0005 11.4 21C11.5252 20.9992 11.6485 20.9691 11.76 20.912L14.96 19.312C15.0919 19.2455 15.2029 19.1438 15.2805 19.0181C15.3582 18.8925 15.3996 18.7477 15.4 18.6V14.928L20.296 10.032C20.4949 9.83413 20.655 9.60078 20.768 9.344V9.296C20.9111 8.99554 20.9901 8.66862 21 8.336V7.4C21 6.76348 20.7471 6.15303 20.2971 5.70294C19.847 5.25286 19.2365 5 18.6 5ZM14.032 14.032C13.9579 14.1068 13.8992 14.1954 13.8594 14.2929C13.8196 14.3903 13.7994 14.4947 13.8 14.6V18.104L12.2 18.904V14.6C12.2006 14.4947 12.1804 14.3903 12.1406 14.2929C12.1008 14.1954 12.0421 14.1068 11.968 14.032L7.728 9.8H18.272L14.032 14.032ZM19.4 8.2H6.6V7.4C6.6 7.18783 6.68429 6.98434 6.83431 6.83431C6.98434 6.68429 7.18783 6.6 7.4 6.6H18.6C18.8122 6.6 19.0157 6.68429 19.1657 6.83431C19.3157 6.98434 19.4 7.18783 19.4 7.4V8.2Z" fill="#8724BD"/>
</svg>
