<svg width="18" height="18" viewBox="0 0 18 18" fill="none" xmlns="http://www.w3.org/2000/svg">
<path d="M16.368 12.1145C15.8591 13.3184 15.0631 14.3792 14.0496 15.2043C13.0361 16.0293 11.8359 16.5935 10.5541 16.8474C9.27225 17.1014 7.94773 17.0374 6.69634 16.661C5.44494 16.2846 4.30476 15.6074 3.37549 14.6884C2.44623 13.7695 1.75616 12.6368 1.36562 11.3895C0.975088 10.1422 0.895974 8.81813 1.1352 7.53314C1.37442 6.24816 1.9247 5.04136 2.73793 4.01824C3.55115 2.99512 4.60256 2.18684 5.80024 1.66406" stroke="#27B4CC" stroke-width="1.5" stroke-linecap="round" stroke-linejoin="round"/>
<path d="M17.0001 9.00187C17.0001 7.95105 16.7932 6.91052 16.3911 5.93969C15.9891 4.96886 15.3998 4.08674 14.657 3.34369C13.9141 2.60065 13.0322 2.01124 12.0617 1.60911C11.0911 1.20697 10.0508 1 9.00024 1V9.00187H17.0001Z" stroke="#27B4CC" stroke-width="1.5" stroke-linecap="round" stroke-linejoin="round"/>
</svg>
